<svg width="23" height="22" viewBox="0 0 23 22" fill="none" xmlns="http://www.w3.org/2000/svg">
<path d="M11.5 0.4375C9.41094 0.4375 7.36879 1.05698 5.63179 2.2176C3.8948 3.37822 2.54098 5.02786 1.74153 6.95791C0.942077 8.88795 0.732904 11.0117 1.14046 13.0606C1.54802 15.1096 2.554 16.9916 4.03119 18.4688C5.50838 19.946 7.39044 20.952 9.43936 21.3595C11.4883 21.7671 13.6121 21.5579 15.5421 20.7585C17.4721 19.959 19.1218 18.6052 20.2824 16.8682C21.443 15.1312 22.0625 13.0891 22.0625 11C22.0595 8.19956 20.9458 5.51466 18.9656 3.53445C16.9853 1.55424 14.3004 0.440457 11.5 0.4375ZM20.4375 11C20.4384 12.1466 20.2177 13.2826 19.7875 14.3455L15.2477 11.5535C15.0546 11.4344 14.8387 11.3572 14.6139 11.327L12.2963 11.0142C11.9769 10.9726 11.6523 11.0261 11.3633 11.1681C11.0742 11.3101 10.8335 11.5343 10.6713 11.8125H9.78563L9.39969 11.0142C9.293 10.7919 9.13685 10.597 8.94321 10.4444C8.74956 10.2918 8.52356 10.1855 8.2825 10.1337L7.47 9.95797L8.26422 8.5625H9.96133C10.236 8.56196 10.506 8.49209 10.7464 8.35937L11.9906 7.67281C12.0999 7.61188 12.202 7.53899 12.2952 7.45547L15.0283 4.98344C15.3023 4.73787 15.4844 4.40624 15.5446 4.04324C15.6048 3.68025 15.5395 3.30758 15.3594 2.98672L15.3228 2.9207C16.8521 3.64586 18.1445 4.78985 19.0498 6.21991C19.9551 7.64998 20.4363 9.30746 20.4375 11ZM2.5625 11C2.56115 9.67158 2.85752 8.35975 3.42985 7.16094L4.58157 10.2352C4.67755 10.4898 4.83589 10.7161 5.04209 10.8936C5.24828 11.071 5.49572 11.1939 5.76172 11.2509L7.93821 11.7191L8.32516 12.5234C8.45945 12.797 8.66757 13.0276 8.92601 13.1891C9.18444 13.3506 9.4829 13.4367 9.78766 13.4375H9.93797L9.20368 15.0859C9.0743 15.3761 9.03286 15.6979 9.08448 16.0115C9.13611 16.325 9.27854 16.6166 9.49414 16.85L9.50836 16.8642L11.5 18.9158L11.303 19.9314C8.96889 19.8771 6.74846 18.9127 5.1155 17.2441C3.48254 15.5755 2.56638 13.3347 2.5625 11Z" fill="#1DBF73"/>
</svg>
