<svg width="24" height="22" viewBox="0 0 24 22" fill="none" xmlns="http://www.w3.org/2000/svg">
<path d="M9.75 19.9375C9.75 20.2589 9.6547 20.5731 9.47614 20.8403C9.29758 21.1075 9.04379 21.3158 8.74686 21.4388C8.44993 21.5618 8.1232 21.594 7.80798 21.5313C7.49276 21.4686 7.20321 21.3138 6.97595 21.0865C6.74869 20.8593 6.59392 20.5697 6.53122 20.2545C6.46852 19.9393 6.5007 19.6126 6.6237 19.3156C6.74669 19.0187 6.95497 18.7649 7.2222 18.5864C7.48943 18.4078 7.80361 18.3125 8.125 18.3125C8.55598 18.3125 8.9693 18.4837 9.27405 18.7885C9.57879 19.0932 9.75 19.5065 9.75 19.9375ZM18.6875 18.3125C18.3661 18.3125 18.0519 18.4078 17.7847 18.5864C17.5175 18.7649 17.3092 19.0187 17.1862 19.3156C17.0632 19.6126 17.031 19.9393 17.0937 20.2545C17.1564 20.5697 17.3112 20.8593 17.5385 21.0865C17.7657 21.3138 18.0553 21.4686 18.3705 21.5313C18.6857 21.594 19.0124 21.5618 19.3094 21.4388C19.6063 21.3158 19.8601 21.1075 20.0386 20.8403C20.2172 20.5731 20.3125 20.2589 20.3125 19.9375C20.3125 19.5065 20.1413 19.0932 19.8365 18.7885C19.5318 18.4837 19.1185 18.3125 18.6875 18.3125ZM23.527 5.55117L20.6294 14.967C20.4776 15.4662 20.169 15.9031 19.7493 16.213C19.3296 16.5229 18.8212 16.6893 18.2995 16.6875H8.53836C8.00919 16.6855 7.49491 16.5122 7.07252 16.1934C6.65013 15.8746 6.34236 15.4276 6.19531 14.9193L2.52078 2.0625H0.8125C0.597012 2.0625 0.390349 1.9769 0.237976 1.82452C0.0856024 1.67215 0 1.46549 0 1.25C0 1.03451 0.0856024 0.827849 0.237976 0.675476C0.390349 0.523102 0.597012 0.4375 0.8125 0.4375H2.52078C2.87362 0.43867 3.21659 0.554082 3.49835 0.766459C3.78012 0.978836 3.98553 1.27676 4.08383 1.61562L4.9075 4.5H22.75C22.8771 4.49995 23.0025 4.52975 23.1161 4.58699C23.2296 4.64422 23.3281 4.72731 23.4037 4.82956C23.4793 4.93181 23.5298 5.05036 23.5512 5.1757C23.5726 5.30103 23.5643 5.42963 23.527 5.55117ZM21.6501 6.125H5.37164L7.75734 14.4734C7.80588 14.6431 7.90835 14.7924 8.04926 14.8987C8.19018 15.005 8.36186 15.0625 8.53836 15.0625H18.2995C18.4734 15.0626 18.6427 15.0069 18.7825 14.9036C18.9224 14.8003 19.0254 14.6549 19.0765 14.4887L21.6501 6.125Z" fill="#C3C5C8"/>
</svg>
