<svg width="23" height="22" viewBox="0 0 23 22" fill="none" xmlns="http://www.w3.org/2000/svg">
<path d="M11.5 0.4375C9.41094 0.4375 7.36879 1.05698 5.63179 2.2176C3.8948 3.37822 2.54098 5.02786 1.74153 6.95791C0.942077 8.88795 0.732904 11.0117 1.14046 13.0606C1.54802 15.1096 2.554 16.9916 4.03119 18.4688C5.50838 19.946 7.39044 20.952 9.43936 21.3595C11.4883 21.7671 13.6121 21.5579 15.5421 20.7585C17.4721 19.959 19.1218 18.6052 20.2824 16.8682C21.443 15.1312 22.0625 13.0891 22.0625 11C22.0595 8.19956 20.9458 5.51466 18.9656 3.53445C16.9853 1.55424 14.3004 0.440457 11.5 0.4375ZM6.02375 18.0586C6.61153 17.1393 7.42126 16.3828 8.3783 15.8588C9.33534 15.3348 10.4089 15.0601 11.5 15.0601C12.5911 15.0601 13.6647 15.3348 14.6217 15.8588C15.5787 16.3828 16.3885 17.1393 16.9763 18.0586C15.4105 19.2763 13.4835 19.9374 11.5 19.9374C9.51647 19.9374 7.58951 19.2763 6.02375 18.0586ZM8.25 10.1875C8.25 9.54471 8.44061 8.91636 8.79773 8.3819C9.15484 7.84744 9.66242 7.43088 10.2563 7.18489C10.8501 6.93891 11.5036 6.87455 12.134 6.99995C12.7645 7.12535 13.3436 7.43488 13.7981 7.8894C14.2526 8.34392 14.5622 8.92302 14.6876 9.55346C14.813 10.1839 14.7486 10.8374 14.5026 11.4312C14.2566 12.0251 13.8401 12.5327 13.3056 12.8898C12.7711 13.2469 12.1428 13.4375 11.5 13.4375C10.6381 13.4375 9.8114 13.0951 9.20191 12.4856C8.59241 11.8761 8.25 11.0495 8.25 10.1875ZM18.1788 16.9323C17.2726 15.6191 15.9984 14.6033 14.5164 14.0123C15.3125 13.3853 15.8934 12.5259 16.1783 11.5534C16.4632 10.581 16.4381 9.54389 16.1063 8.58641C15.7745 7.62894 15.1526 6.79865 14.327 6.21101C13.5015 5.62338 12.5133 5.3076 11.5 5.3076C10.4867 5.3076 9.49852 5.62338 8.67297 6.21101C7.84743 6.79865 7.22551 7.62894 6.89372 8.58641C6.56194 9.54389 6.53676 10.581 6.8217 11.5534C7.10664 12.5259 7.68754 13.3853 8.4836 14.0123C7.00162 14.6033 5.72743 15.6191 4.82125 16.9323C3.67621 15.6446 2.9278 14.0534 2.66614 12.3503C2.40449 10.6471 2.64075 8.90466 3.34648 7.33268C4.05221 5.7607 5.19731 4.42624 6.6439 3.49C8.09049 2.55375 9.77688 2.05564 11.5 2.05564C13.2231 2.05564 14.9095 2.55375 16.3561 3.49C17.8027 4.42624 18.9478 5.7607 19.6535 7.33268C20.3593 8.90466 20.5955 10.6471 20.3339 12.3503C20.0722 14.0534 19.3238 15.6446 18.1788 16.9323Z" fill="#C3C5C8"/>
</svg>
